# xmcd
#
# Track frame offsets:
#	150
#	15034
#	24799
#	38527
#	51764
#	59933
#	69951
#	83456
#	95221
#	108467
#	123763
#	142176
#	146709
#
# Disc length: 2108 seconds
#
# Revision: 0
# Processed by: cddbd v1.5.2PL0 Copyright (c) Steve Scherf et al.
# Submitted via: audiograbber 1.83.01
#
DISCID=a7083a0d
DTITLE=Jen Ma\\ize and Mark Sholtez - Twilight On The Trail
DYEAR=2019
DGENRE=Country
TTITLE0=Home On The Range
TTITLE1=Ridin' Down The Canyon
TTITLE2=Lights Of Old Santa Fe
TTITLE3=Black Hills Of Dakota
TTITLE4=There's A New Moon Over My Sholder
TTITLE5=Cool Water
TTITLE6=My Rifle, My Pony and Me
TTITLE7=Cow-Cow Boogie
TTITLE8=Twilight On The Trail
TTITLE9=Wand'rin Star
TTITLE10=Piensa En Me
TTITLE11=Ridin' Down The Canyon (Reprise)
TTITLE12=Red River Valley
EXTD=
EXTT0=
EXTT1=
EXTT2=
EXTT3=
EXTT4=
EXTT5=
EXTT6=
EXTT7=
EXTT8=
EXTT9=
EXTT10=
EXTT11=
EXTT12=
PLAYORDER=
